<svg xmlns="http://www.w3.org/2000/svg" xmlns:xlink="http://www.w3.org/1999/xlink" width="145.73" height="56.159" viewBox="0 0 145.73 56.159"><defs><style>.a{fill:#fff;}.b{clip-path:url(#a);}</style><clipPath id="a"><path class="a" d="M0,17.135H145.73V-39.024H0Z" transform="translate(0 39.024)"/></clipPath></defs><g transform="translate(0 39.024)"><g class="b" transform="translate(0 -39.024)"><g transform="translate(59.586 0.276)"><path class="a" d="M1.02,2.843a2.571,2.571,0,0,0,2.087-.869v.77H4.957V-6.474H3.02v3.242a2.567,2.567,0,0,0-2-.807A3.249,3.249,0,0,0-2.322-.6,3.249,3.249,0,0,0,1.02,2.843m.335-5.292A1.693,1.693,0,0,1,3.057-.6a1.693,1.693,0,0,1-1.7,1.851A1.7,1.7,0,0,1-.359-.6,1.7,1.7,0,0,1,1.355-2.449" transform="translate(2.322 6.474)"/></g><g transform="translate(68.158 2.71)"><path class="a" d="M1.179,1.626A1.781,1.781,0,0,1-.734.285H4.322c.013-.161.037-.373.037-.522A3.308,3.308,0,0,0,.881-3.7,3.4,3.4,0,0,0-2.684-.262c0,1.987,1.5,3.441,3.814,3.441A3.5,3.5,0,0,0,3.887,2.1L2.855.98a2.264,2.264,0,0,1-1.677.646M.894-2.238A1.588,1.588,0,0,1,2.533-.846H-.76A1.584,1.584,0,0,1,.894-2.238" transform="translate(2.684 3.703)"/></g></g><g transform="translate(75.374 -36.214)"><path class="a" d="M1.467,2.039,4.287-4.644H2.424L.51-.1-1.341-4.644h-2L-.534,2.039Z" transform="translate(3.34 4.644)"/></g><g class="b" transform="translate(0 -39.024)"><g transform="translate(83.113 2.711)"><path class="a" d="M1.164,2.1A3.5,3.5,0,0,0,3.921,1.019L2.891-.1A2.268,2.268,0,0,1,1.213.547,1.783,1.783,0,0,1-.7-.794H4.356c.013-.163.037-.373.037-.522A3.308,3.308,0,0,0,.915-4.782,3.4,3.4,0,0,0-2.65-1.341C-2.65.646-1.148,2.1,1.164,2.1M.928-3.317A1.588,1.588,0,0,1,2.567-1.925H-.724A1.583,1.583,0,0,1,.928-3.317" transform="translate(2.65 4.782)"/></g></g><path class="a" d="M63.545-29.616h1.938v-9.217H63.545Z" transform="translate(27.903 0.084)"/><g class="b" transform="translate(0 -39.024)"><g transform="translate(94.689 2.71)"><path class="a" d="M1.122,0a3.448,3.448,0,1,0,0,6.882A3.43,3.43,0,0,0,4.786,3.441,3.43,3.43,0,0,0,1.122,0m0,5.292A1.7,1.7,0,0,1-.592,3.441,1.7,1.7,0,0,1,1.122,1.59a1.687,1.687,0,0,1,1.7,1.851,1.687,1.687,0,0,1-1.7,1.851" transform="translate(2.555)"/></g><g transform="translate(103.322 2.71)"><path class="a" d="M.591,1.853A2.592,2.592,0,0,0,2.6,2.661,3.246,3.246,0,0,0,5.933-.78,3.246,3.246,0,0,0,2.6-4.221a2.6,2.6,0,0,0-2.1.869v-.77H-1.347V4.972H.591ZM2.268-2.631A1.686,1.686,0,0,1,3.97-.78a1.686,1.686,0,0,1-1.7,1.851A1.686,1.686,0,0,1,.567-.78a1.686,1.686,0,0,1,1.7-1.851" transform="translate(1.347 4.221)"/></g><g transform="translate(111.893 2.71)"><path class="a" d="M2.612,0A3.006,3.006,0,0,0,.2,1.094,2.491,2.491,0,0,0-2,0,2.706,2.706,0,0,0-4.1.869V.1H-5.948V6.782H-4.01V3.428c0-1.192.609-1.751,1.466-1.751.807,0,1.266.5,1.266,1.579V6.782H.662V3.428c0-1.192.609-1.751,1.478-1.751.783,0,1.266.5,1.266,1.579V6.782H5.345V2.956C5.345.92,4.2,0,2.612,0" transform="translate(5.948 0)"/></g><g transform="translate(124.502 2.71)"><path class="a" d="M1.088,0A3.4,3.4,0,0,0-2.477,3.441c0,1.987,1.5,3.441,3.814,3.441A3.5,3.5,0,0,0,4.094,5.8L3.064,4.683a2.27,2.27,0,0,1-1.678.646A1.781,1.781,0,0,1-.527,3.988H4.529c.013-.161.037-.373.037-.522A3.308,3.308,0,0,0,1.088,0M-.551,2.857A1.582,1.582,0,0,1,1.1,1.466,1.587,1.587,0,0,1,2.74,2.857Z" transform="translate(2.477 0)"/></g><g transform="translate(132.836 2.71)"><path class="a" d="M1.24,0A2.924,2.924,0,0,0-.971.882V.1H-2.823V6.782H-.885v-3.3c0-1.23.671-1.8,1.6-1.8.858,0,1.354.5,1.354,1.579V6.782H4.01V2.956A2.62,2.62,0,0,0,1.24,0" transform="translate(2.823 0)"/></g><g transform="translate(140.625 1.332)"><path class="a" d="M1.4,1.975a1.309,1.309,0,0,1-.783.249.78.78,0,0,1-.832-.882V-1.38H1.447V-2.869H-.216V-4.5H-2.155v1.628h-1.03V-1.38h1.03V1.366a2.2,2.2,0,0,0,2.5,2.4,2.774,2.774,0,0,0,1.577-.422Z" transform="translate(3.185 4.497)"/></g><g transform="translate(59.412 17.616)"><path class="a" d="M.906,1.653a4.563,4.563,0,0,1-2.323-.646L-2.063,2.4a5.737,5.737,0,0,0,2.894.721c2,0,3.156-.882,3.156-2.126,0-2.632-4.038-1.527-4.038-2.67,0-.348.373-.622,1.243-.622a3.834,3.834,0,0,1,1.924.5L3.762-3.18a5.492,5.492,0,0,0-2.57-.584c-1.951,0-3.094.9-3.094,2.162,0,2.671,4.038,1.553,4.038,2.647,0,.373-.337.609-1.23.609" transform="translate(2.063 3.764)"/></g></g><path class="a" d="M48.254-26.714H46.316v6.683h1.938Z" transform="translate(20.337 5.405)"/><g class="b" transform="translate(0 -39.024)"><g transform="translate(69.598 16.237)"><path class="a" d="M1.16,2.051a.78.78,0,0,1-.832-.882v-2.72H1.991V-3.042H.328V-4.67H-1.611v1.628h-1.03v1.491h1.03V1.193a2.2,2.2,0,0,0,2.5,2.4,2.774,2.774,0,0,0,1.577-.422L1.943,1.8a1.3,1.3,0,0,1-.783.249" transform="translate(2.641 4.67)"/></g><g transform="translate(75.088 17.617)"><path class="a" d="M1.164,2.1A3.5,3.5,0,0,0,3.921,1.019L2.891-.1A2.268,2.268,0,0,1,1.213.547,1.783,1.783,0,0,1-.7-.794H4.356c.013-.163.037-.373.037-.522A3.308,3.308,0,0,0,.915-4.782,3.4,3.4,0,0,0-2.65-1.341C-2.65.646-1.148,2.1,1.164,2.1M.928-3.317A1.588,1.588,0,0,1,2.567-1.925H-.724A1.583,1.583,0,0,1,.928-3.317" transform="translate(2.65 4.782)"/></g><g transform="translate(59.623 32.523)"><path class="a" d="M.955,0A5.141,5.141,0,0,0-1.926.807l.7,1.354A3.208,3.208,0,0,1,.695,1.54c1.043,0,1.54.485,1.54,1.317H.695c-2.038,0-2.87.82-2.87,2,0,1.156.931,2.025,2.5,2.025A2.195,2.195,0,0,0,2.36,5.951v.832H4.173V2.969C4.173.944,2.993,0,.955,0M2.234,4.671a1.428,1.428,0,0,1-1.429.907c-.682,0-1.092-.324-1.092-.807,0-.448.285-.783,1.193-.783H2.234Z" transform="translate(2.175)"/></g><g transform="translate(67.324 30.088)"><path class="a" d="M1.63.989a2.567,2.567,0,0,0-2-.807A3.249,3.249,0,0,0-3.712,3.623,3.249,3.249,0,0,0-.37,7.064a2.571,2.571,0,0,0,2.087-.869v.77H3.568V-2.253H1.63ZM-.035,5.474A1.7,1.7,0,0,1-1.749,3.623,1.7,1.7,0,0,1-.035,1.772a1.693,1.693,0,0,1,1.7,1.851,1.693,1.693,0,0,1-1.7,1.851" transform="translate(3.712 2.253)"/></g></g><g transform="translate(75.398 -6.402)"><path class="a" d="M1.175,1.387-.676-3.159h-2L.132,3.524h2L4.951-3.159H3.088Z" transform="translate(2.676 3.159)"/></g><path class="a" d="M58.245-9.673h1.938v-6.683H58.245Z" transform="translate(25.575 9.954)"/><g class="b" transform="translate(0 -39.024)"><g transform="translate(86.914 32.523)"><path class="a" d="M.614.637C.614.288.987.015,1.856.015a3.837,3.837,0,0,1,1.926.5L4.427-.866A5.494,5.494,0,0,0,1.856-1.45c-1.95,0-3.093.894-3.093,2.162,0,2.671,4.037,1.553,4.037,2.645,0,.373-.335.609-1.229.609A4.573,4.573,0,0,1-.753,3.319L-1.4,4.711A5.729,5.729,0,0,0,1.5,5.432c2,0,3.155-.882,3.155-2.124C4.651.674.614,1.779.614.637" transform="translate(1.398 1.45)"/></g><g transform="translate(93.658 32.523)"><path class="a" d="M1.122,0a3.448,3.448,0,1,0,0,6.882A3.43,3.43,0,0,0,4.786,3.441,3.43,3.43,0,0,0,1.122,0m0,5.292A1.7,1.7,0,0,1-.592,3.441,1.7,1.7,0,0,1,1.122,1.59a1.687,1.687,0,0,1,1.7,1.851,1.687,1.687,0,0,1-1.7,1.851" transform="translate(2.555)"/></g><g transform="translate(102.292 32.523)"><path class="a" d="M.565.3V-.583H-1.286V6.1H.651V2.946A1.642,1.642,0,0,1,2.428,1.082c.148,0,.273.012.435.024V-.682A2.7,2.7,0,0,0,.565.3" transform="translate(1.286 0.682)"/></g><g transform="translate(106.975 32.523)"><path class="a" d="M.614.637C.614.288.987.015,1.856.015a3.837,3.837,0,0,1,1.926.5L4.427-.866A5.494,5.494,0,0,0,1.856-1.45c-1.95,0-3.093.894-3.093,2.162,0,2.671,4.037,1.553,4.037,2.645,0,.373-.335.609-1.229.609A4.573,4.573,0,0,1-.753,3.319L-1.4,4.711A5.729,5.729,0,0,0,1.5,5.432c2,0,3.155-.882,3.155-2.124C4.651.674.614,1.779.614.637" transform="translate(1.398 1.45)"/></g><g transform="translate(0 0.001)"><path class="a" d="M5.956,15.717v-.05c0-4.582,2.995-7.09,6.244-7.09a5.266,5.266,0,0,1,4.274,2.048V3.867h3.891v16.5h1.364l1.425-2.192a7.763,7.763,0,0,0,4.326,1.639c1.127,0,1.638-.41,1.638-1.025v-.05c0-.845-1.331-1.127-2.841-1.587-1.92-.563-4.094-1.459-4.094-4.12v-.052c0-2.789,2.252-4.35,5.015-4.35a9.5,9.5,0,0,1,5.119,1.586L30.833,12.9a8.116,8.116,0,0,0-3.711-1.279c-.947,0-1.433.409-1.433.947v.05c0,.768,1.305,1.127,2.79,1.638,1.918.64,4.146,1.561,4.146,4.07v.052a4.619,4.619,0,0,1-.409,1.986h1.455a4.28,4.28,0,0,1-.355-1.756v-.052c0-2.995,2.278-4.376,5.529-4.376a9.746,9.746,0,0,1,3.352.563v-.23c0-1.612-1-2.508-2.943-2.508a10.1,10.1,0,0,0-3.788.743l-.973-2.969a12.115,12.115,0,0,1,5.323-1.1,8.476,8.476,0,0,1,2.78.414V-35.793H6.77l-13.6,6.9-6.732-3.415v4.677l6.732,3.311L3.274-29.29l6.46,3.478-16.565,8.4-6.732-3.416v5.008L-6.831-12.5,3.274-17.473l6.46,3.478-16.565,8.4-6.732-3.415V20.365H7.366a7.643,7.643,0,0,1-1.41-4.648" transform="translate(13.563 35.793)"/></g><g transform="translate(50.642 52.365)"><path class="a" d="M1.577.367V-.324A6.039,6.039,0,0,0-.905-.836c-1.664,0-2.687.666-2.687,1.894V1.11c0,1.049.869,1.664,2.124,1.664,1.816,0,3.045-1,3.045-2.406" transform="translate(3.592 0.836)"/></g><g transform="translate(23.409 47.733)"><path class="a" d="M2.038,1.172V1.12A3.48,3.48,0,0,0-1.289-2.668,3.484,3.484,0,0,0-4.642,1.12v.052A3.5,3.5,0,0,0-1.289,4.959,3.479,3.479,0,0,0,2.038,1.172" transform="translate(4.642 2.668)"/></g><g transform="translate(113.75 30.786)"><path class="a" d="M0,.643A2.078,2.078,0,0,1,.281-.408a2.05,2.05,0,0,1,.77-.774,2.078,2.078,0,0,1,1.056-.282,2.1,2.1,0,0,1,1.052.279,2.06,2.06,0,0,1,.773.771A2.08,2.08,0,0,1,4.215.643,2.089,2.089,0,0,1,3.943,1.68a2.075,2.075,0,0,1-.763.776,2.062,2.062,0,0,1-1.074.291,2.076,2.076,0,0,1-1.071-.289,2.055,2.055,0,0,1-.763-.776A2.073,2.073,0,0,1,0,.643m.294,0a1.779,1.779,0,0,0,.245.907,1.783,1.783,0,0,0,.665.663,1.778,1.778,0,0,0,.9.243,1.762,1.762,0,0,0,.905-.245,1.81,1.81,0,0,0,.663-.659A1.752,1.752,0,0,0,3.92.643a1.764,1.764,0,0,0-.243-.905,1.836,1.836,0,0,0-.661-.663,1.8,1.8,0,0,0-1.815,0A1.817,1.817,0,0,0,.54-.267a1.754,1.754,0,0,0-.246.91M2.962.133a.679.679,0,0,1-.118.4.711.711,0,0,1-.335.256l.666,1.107H2.7L2.124.9H1.746v.992H1.331V-.6h.731a1.051,1.051,0,0,1,.682.183.682.682,0,0,1,.217.555M1.746.556h.3A.537.537,0,0,0,2.409.44a.373.373,0,0,0,.135-.3.352.352,0,0,0-.121-.3.634.634,0,0,0-.38-.091h-.3Z" transform="translate(0 1.464)"/></g></g></g></svg>